<svg width="28" height="16" viewBox="0 0 16 9" fill="none" xmlns="http://www.w3.org/2000/svg">
<path d="M7.8002 6.61887C7.51344 7.06957 7.23831 7.51049 6.62182 7.93884C6.29205 8.16999 5.53303 8.62163 4.45414 8.62163C2.39577 8.62163 0.734375 7.12515 0.734375 4.49417C0.734375 2.19478 2.29722 0.378372 4.49803 0.378372C5.38965 0.378372 6.18184 0.686605 6.76522 1.149C7.3047 1.5782 7.55735 2.00751 7.77781 2.39283L6.23738 3.16254C6.12717 2.90983 5.99451 2.64548 5.65399 2.35963C5.27946 2.06212 4.90575 1.97432 4.58583 1.97432C3.33131 1.97432 2.67087 3.14107 2.67087 4.43951C2.67087 6.1457 3.54099 6.99252 4.58583 6.99252C5.59842 6.99252 6.00614 6.28817 6.26964 5.83746L7.8002 6.6189V6.61887ZM13.1965 0.620335H15.2656L12.5692 8.39045H10.5888L7.92564 0.620335H9.99474L11.6015 6.14573L13.1965 0.620335Z" fill="#FE675D"/>
</svg>
