<svg width="13" height="13" viewBox="0 0 13 13" fill="none" xmlns="http://www.w3.org/2000/svg">
<path d="M6.5 0.666672C5.73396 0.666672 4.97541 0.817555 4.26768 1.11071C3.55995 1.40386 2.91689 1.83354 2.37521 2.37522C1.28125 3.46918 0.666667 4.95291 0.666667 6.5C0.666667 9.07834 2.34083 11.2658 4.65667 12.0417C4.94833 12.0883 5.04167 11.9075 5.04167 11.75V10.7642C3.42583 11.1142 3.08167 9.9825 3.08167 9.9825C2.81333 9.30584 2.43417 9.125 2.43417 9.125C1.90333 8.76334 2.475 8.775 2.475 8.775C3.05833 8.81584 3.3675 9.37584 3.3675 9.37584C3.875 10.2625 4.7325 10 5.065 9.86001C5.1175 9.48084 5.26917 9.22417 5.4325 9.07834C4.1375 8.9325 2.77833 8.43084 2.77833 6.20834C2.77833 5.56084 3 5.04167 3.37917 4.6275C3.32083 4.48167 3.11667 3.87501 3.4375 3.08751C3.4375 3.08751 3.9275 2.93001 5.04167 3.68251C5.5025 3.55417 6.00417 3.49001 6.5 3.49001C6.99583 3.49001 7.4975 3.55417 7.95833 3.68251C9.0725 2.93001 9.5625 3.08751 9.5625 3.08751C9.88333 3.87501 9.67917 4.48167 9.62083 4.6275C10 5.04167 10.2217 5.56084 10.2217 6.20834C10.2217 8.43667 8.85667 8.92667 7.55583 9.0725C7.76583 9.25334 7.95833 9.60917 7.95833 10.1517V11.75C7.95833 11.9075 8.05167 12.0942 8.34917 12.0417C10.665 11.26 12.3333 9.07834 12.3333 6.5C12.3333 5.73396 12.1825 4.97542 11.8893 4.26768C11.5961 3.55995 11.1665 2.91689 10.6248 2.37522C10.0831 1.83354 9.44005 1.40386 8.73232 1.11071C8.02459 0.817555 7.26604 0.666672 6.5 0.666672Z" fill="#FE675D"/>
</svg>
