<svg width="32" height="37" viewBox="0 0 18 21" fill="none" xmlns="http://www.w3.org/2000/svg">
<path d="M11.7118 15.0341C11.5041 14.0116 10.5907 13.2859 9.54818 13.2442C8.85313 13.2163 7.79496 13.2158 6.37368 13.2426C6.36048 13.2429 6.34789 13.2482 6.33859 13.2575C6.3293 13.2668 6.32403 13.2794 6.32389 13.2924L6.28517 20.2127C6.28503 20.2262 6.27961 20.2391 6.27008 20.2485C6.26055 20.2579 6.24771 20.2632 6.23437 20.263C4.25082 20.2426 2.2676 20.2416 0.284714 20.26C0.278067 20.2601 0.271473 20.2588 0.265312 20.2564C0.259152 20.2539 0.253547 20.2502 0.248824 20.2456C0.2441 20.241 0.240351 20.2355 0.237793 20.2294C0.235234 20.2233 0.233916 20.2168 0.233917 20.2102C0.228553 19.2275 0.226375 18.2461 0.227381 17.2661C0.231404 14.1647 0.234588 11.0633 0.236935 7.96188C0.239282 5.32653 0.237439 2.69135 0.231403 0.0563306C0.231337 0.0497499 0.232576 0.0432213 0.235049 0.0371224C0.237521 0.0310234 0.241178 0.0254749 0.245808 0.020798C0.250438 0.0161212 0.255949 0.0124083 0.262023 0.00987471C0.268097 0.00734113 0.274612 0.00603732 0.281193 0.00603766L1.76081 2.74921e-06C1.77398 -0.000134843 1.78668 0.00489704 1.79617 0.0140187C1.80567 0.0231404 1.81121 0.0356242 1.81161 0.048787C1.82217 0.410393 1.80859 0.847941 1.80909 1.13059C1.81714 6.57732 1.81882 12.0239 1.81412 17.4703C1.81379 17.6342 1.82519 18.0047 1.84832 18.5817C1.84884 18.5947 1.85442 18.607 1.86389 18.616C1.87336 18.625 1.88599 18.63 1.89912 18.63L4.57672 18.62C4.59001 18.6198 4.60273 18.6146 4.61213 18.6052C4.62153 18.5959 4.62688 18.5833 4.62701 18.5702C4.64511 16.7496 4.65014 14.958 4.6421 13.1954C4.63942 12.5704 4.64428 12.1414 4.65668 11.9084C4.65746 11.8953 4.66316 11.8831 4.67262 11.8742C4.68208 11.8653 4.69456 11.8605 4.70748 11.8606C6.45667 11.8794 7.81039 11.8834 8.76864 11.8727C9.87961 11.8606 10.7899 11.9109 11.7017 12.5974C12.7805 13.4091 13.2568 14.4643 13.3684 15.801C13.3956 16.13 13.3984 17.0984 13.377 18.7065C13.3763 18.7615 13.3545 18.7719 13.3116 18.7377C12.8469 18.3655 12.3857 17.992 11.928 17.6171C11.8139 17.5236 11.8038 17.4421 11.8018 17.3038C11.7974 16.9705 11.7882 16.5479 11.7741 16.0359C11.7597 15.5015 11.7389 15.1675 11.7118 15.0341Z" fill="#FE675D"/>
<path d="M17.7389 2.80988L17.7404 5.79024C17.7635 5.91061 17.7677 6.0469 17.753 6.19912C17.2789 6.3557 16.7946 6.44924 16.3 6.47975C16.2457 6.48311 16.1919 6.47942 16.1386 6.46869L16.1582 5.664C16.1897 4.60751 16.1864 3.55136 16.1481 2.49554L16.122 1.77384C16.1216 1.76068 16.116 1.74819 16.1065 1.73907C16.0971 1.72995 16.0844 1.72492 16.0712 1.72506L13.5289 1.7497C13.5222 1.74977 13.5157 1.75115 13.5096 1.75377C13.5034 1.75639 13.4979 1.76019 13.4933 1.76496C13.4886 1.76973 13.485 1.77537 13.4826 1.78156C13.4801 1.78774 13.479 1.79435 13.4791 1.801C13.4838 2.02463 13.4823 2.24827 13.4746 2.47191C13.4635 2.79278 13.4581 3.02664 13.4585 3.17349C13.4628 4.60617 13.4596 6.03885 13.4489 7.47153C13.4489 7.48487 13.4436 7.49766 13.4342 7.50709C13.4247 7.51652 13.412 7.52182 13.3986 7.52182L10.8055 7.49768L10.8256 6.15385L11.3748 6.1277C11.3877 6.12706 11.3999 6.12147 11.4088 6.11211C11.4177 6.10275 11.4226 6.09032 11.4226 6.07741L11.4206 0.0563355C11.4206 0.0429969 11.4259 0.0302054 11.4353 0.0207737C11.4448 0.0113419 11.4575 0.00604248 11.4709 0.00604248H17.6956C17.7088 0.00603712 17.7215 0.0111428 17.7309 0.0202641C17.7403 0.0293854 17.7457 0.0417949 17.7459 0.0548267C17.7577 0.52121 17.759 0.987091 17.75 1.45247C17.7429 1.83319 17.7761 2.35523 17.7389 2.80988Z" fill="#FE675D"/>
<path d="M10.8256 6.15387L10.8055 7.4977C9.44592 7.47792 8.49891 7.47339 7.96446 7.48412C6.24092 7.51832 4.90614 6.09754 4.68435 4.43888C4.58226 3.67594 4.64764 2.70277 4.63506 1.88299C4.63406 1.81761 4.66038 1.80353 4.71402 1.84075C5.1955 2.17503 5.65702 2.53563 6.09859 2.92255C6.10424 2.92742 6.10875 2.93346 6.11179 2.94024C6.11483 2.94702 6.11634 2.95437 6.11619 2.96178C6.09255 3.99027 6.09809 4.91063 6.79364 5.62831C7.14368 5.98975 7.58827 6.17114 8.12741 6.17248C9.031 6.17449 9.93041 6.16829 10.8256 6.15387Z" fill="#FE675D"/>
<path d="M17.753 6.19913C17.7637 8.54311 17.7701 10.8879 17.7721 13.2336C17.7731 14.1836 17.7741 15.1709 17.7681 16.138C17.7597 17.4906 17.7565 18.8428 17.7585 20.1947C17.7585 20.208 17.7533 20.2209 17.744 20.2304C17.7346 20.2399 17.722 20.2453 17.7087 20.2454L16.2004 20.2595C16.1938 20.2596 16.1872 20.2583 16.181 20.2558C16.1749 20.2534 16.1693 20.2497 16.1646 20.245C16.1598 20.2403 16.1561 20.2347 16.1535 20.2286C16.151 20.2225 16.1496 20.2159 16.1496 20.2092L16.1386 6.4687C16.1919 6.47943 16.2457 6.48311 16.3 6.47976C16.7946 6.44925 17.2789 6.35571 17.753 6.19913Z" fill="#FE675D"/>
</svg>
