<svg width="939" height="93" viewBox="0 0 939 93" fill="none" xmlns="http://www.w3.org/2000/svg">
<g clip-path="url(#clip0_133_27)">
<path d="M0 0H12.81L43.58 75.56C43.6221 75.6582 43.6922 75.7423 43.7815 75.8014C43.8707 75.8606 43.9751 75.8921 44.0812 75.8921C44.1874 75.8921 44.2905 75.8606 44.3776 75.8014C44.4646 75.7423 44.5316 75.6582 44.57 75.56L75.56 0H88.31L88.27 90.62C88.2633 90.92 88.1133 91.07 87.82 91.07L78.77 90.97C78.4233 90.97 78.25 90.7967 78.25 90.45V22.49C78.2525 22.3565 78.2079 22.2263 78.1242 22.1222C78.0405 22.0181 77.9229 21.9468 77.7919 21.9206C77.6609 21.8944 77.5249 21.915 77.4076 21.9789C77.2903 22.0427 77.1991 22.1458 77.15 22.27L49.26 90.61C49.1467 90.8967 48.9367 91.04 48.63 91.04L39.9 90.98C39.4667 90.98 39.17 90.78 39.01 90.38L11.1 21.85C11.0625 21.7535 10.9922 21.6733 10.9014 21.6235C10.8106 21.5737 10.7051 21.5576 10.6036 21.5779C10.502 21.5982 10.4109 21.6537 10.3463 21.7345C10.2816 21.8154 10.2475 21.9165 10.25 22.02V90.71C10.25 90.9833 10.1133 91.12 9.84 91.12L0 90.94V0Z" fill="#D81F1F"/>
<path d="M545.75 0H556.06L556.19 90.69C556.19 90.9567 556.057 91.09 555.79 91.09L545.99 90.96C545.683 90.96 545.53 90.8067 545.53 90.5L545.75 0Z" fill="#D81F1F"/>
<path d="M685.7 0H716.56C745.41 1.74 758.29 23.13 756.13 50.34C754.65 68.99 746.08 84.39 726.97 89.41C715.64 92.39 698.96 91.04 686.05 90.98C685.717 90.98 685.55 90.8133 685.55 90.48L685.7 0ZM696.74 81.24C720.2 82.32 741.61 81.42 745.25 52.49C747.97 30.92 739.89 10.31 714.71 9.83C708.837 9.71667 702.927 9.7 696.98 9.78C696.66 9.78667 696.5 9.94667 696.5 10.26V80.99C696.5 81.1433 696.58 81.2267 696.74 81.24Z" fill="#D81F1F"/>
<path d="M847.75 22.22V7C847.75 6.66667 847.917 6.5 848.25 6.5H857.5C857.833 6.5 858 6.66667 858 7V22.25C858 22.5833 858.167 22.75 858.5 22.75H871.87C872.29 22.75 872.5 22.9567 872.5 23.37V30.97C872.5 31.3233 872.323 31.5 871.97 31.5H858.56C858.227 31.5 858.06 31.6633 858.06 31.99C857.947 45.6833 857.92 59.3467 857.98 72.98C858.02 81.55 864.43 82.2 871.02 81.53C871.393 81.49 871.623 81.6533 871.71 82.02L873.54 90.17C873.613 90.4967 873.493 90.71 873.18 90.81C864.34 93.74 853.19 90.81 849.21 81.91C848.243 79.75 847.76 76.2367 847.76 71.37C847.767 58.2567 847.76 45.1433 847.74 32.03C847.74 31.67 847.557 31.49 847.19 31.49L838.11 31.52C837.703 31.5267 837.5 31.3267 837.5 30.92V23.25C837.5 23.1174 837.553 22.9902 837.646 22.8964C837.74 22.8027 837.867 22.75 838 22.75H847.22C847.573 22.75 847.75 22.5733 847.75 22.22Z" fill="#D81F1F"/>
<path d="M192.8 32.71C192.8 32.8201 192.839 32.9268 192.908 33.012C192.978 33.0973 193.075 33.156 193.183 33.1782C193.291 33.2005 193.403 33.185 193.501 33.1344C193.599 33.0837 193.676 33.001 193.72 32.9C197.68 23.79 206.45 20.91 215.94 21.9C216.313 21.94 216.5 22.1467 216.5 22.52V32C216.5 32.4267 216.293 32.59 215.88 32.49C210.093 31.11 204.917 31.8067 200.35 34.58C194.39 38.21 193.25 43.62 193.26 50.79C193.273 64.0033 193.263 77.2167 193.23 90.43C193.23 90.83 193.033 91.0267 192.64 91.02L183.77 90.99C183.257 90.99 183 90.73 183 90.21V23.38C183 22.96 183.21 22.75 183.63 22.75H192.11C192.517 22.75 192.723 22.9533 192.73 23.36L192.8 32.71Z" fill="#D81F1F"/>
<path d="M141.34 92.18C98.51 98.82 92.44 27.84 132.39 22.23C174.13 16.36 179.41 86.28 141.34 92.18ZM147.55 34.95C141.32 29.96 131.26 30.34 125.08 34.96C108.75 47.16 114.58 90.14 142.21 82.29C160.11 77.2 160.51 45.34 147.55 34.95Z" fill="#D81F1F"/>
<path d="M261.05 91.8C210.85 102.42 211.03 9.44999 263.76 23.25C268.5 24.4967 272.84 27.4033 276.78 31.97C291.6 49.18 286.92 86.33 261.05 91.8ZM251.05 31.64C228.54 35.19 228.91 78.72 249.49 82.5C283.52 88.75 282.42 26.7 251.05 31.64Z" fill="#D81F1F"/>
<path d="M313.12 88.56C288.74 74.16 293.41 25.13 324.93 22.04C338.72 20.7 352.5 28.25 354.71 42.71C354.77 43.07 354.617 43.25 354.25 43.25H345.02C344.707 43.25 344.5 43.1 344.4 42.8C339.7 28.18 320.49 27.91 312.67 39.67C308.01 46.7 307.36 56.7 308.79 64.73C310.96 76.99 321.25 86.27 334.23 82.21C339.37 80.6033 342.753 77.1066 344.38 71.72C344.473 71.4066 344.683 71.25 345.01 71.25H354.22C354.607 71.25 354.763 71.44 354.69 71.82C350.81 91.33 328.64 97.72 313.12 88.56Z" fill="#D81F1F"/>
<path d="M376.82 30.26C391.34 15.62 419.97 20.43 424.03 42.59C424.045 42.6708 424.042 42.7538 424.021 42.8331C424.001 42.9125 423.964 42.9863 423.912 43.0492C423.861 43.1122 423.796 43.1628 423.723 43.1975C423.65 43.2322 423.571 43.2502 423.49 43.25H414.26C413.947 43.25 413.733 43.1034 413.62 42.81C410.333 33.9834 404.04 30.2134 394.74 31.5C372.03 34.65 371.42 76.84 392.73 82.55C401.3 84.84 410.88 80.95 413.54 71.8C413.647 71.4334 413.89 71.25 414.27 71.25H423.48C423.927 71.25 424.103 71.47 424.01 71.91C421.37 84.43 412.27 91.34 399.71 92.41C366.57 95.24 357.64 49.6 376.82 30.26Z" fill="#D81F1F"/>
<path d="M586.75 33.23C586.751 33.2965 586.774 33.3614 586.814 33.415C586.854 33.4685 586.91 33.5078 586.973 33.5269C587.036 33.5461 587.103 33.544 587.164 33.5212C587.225 33.4983 587.276 33.4558 587.31 33.4C592.61 25.2267 599.67 21.4 608.49 21.92C623.04 22.77 630.18 32.75 630.22 46.82C630.267 61.4333 630.273 76.0467 630.24 90.66C630.233 90.9333 630.093 91.07 629.82 91.07L620.39 91.01C620.292 91.01 620.198 90.971 620.128 90.9016C620.059 90.8322 620.02 90.7381 620.02 90.64C619.933 84.6667 619.86 78.7933 619.8 73.02C619.73 65.75 620.29 53.82 619.58 44.94C618.92 36.74 613.23 31.88 605.07 31.51C592.15 30.93 587.25 40.21 587.12 51.6C586.973 64.5667 586.943 77.52 587.03 90.46C587.03 90.82 586.853 91 586.5 91H577.25C576.917 91 576.75 90.8333 576.75 90.5V23.16C576.75 23.0539 576.792 22.9522 576.867 22.8772C576.942 22.8022 577.044 22.76 577.15 22.76L586.25 22.75C586.383 22.75 586.51 22.8027 586.604 22.8965C586.697 22.9902 586.75 23.1174 586.75 23.25V33.23Z" fill="#D81F1F"/>
<path d="M813.75 82.29C813.75 82.2209 813.727 82.1538 813.685 82.0987C813.643 82.0436 813.585 82.0034 813.519 81.9843C813.452 81.9652 813.381 81.968 813.317 81.9925C813.252 82.017 813.197 82.0617 813.16 82.12C801.43 100.59 768.71 94.4 770.2 69.73C771.2 53.08 792.6 51.86 804.68 50.62C808.32 50.24 813.4 49.87 813.7 45.81C814.39 36.6 808.89 31.59 800.01 31.11C792.283 30.7034 786.263 34 781.95 41C781.783 41.28 781.543 41.3634 781.23 41.25L772.49 38.04C772.21 37.94 772.13 37.7534 772.25 37.48C777.29 25.69 789.81 21.07 801.76 22.06C818.3 23.44 823.9 32.45 823.96 47.93C824.013 62.1034 824.023 76.28 823.99 90.46C823.99 90.8267 823.81 91.01 823.45 91.01L814.25 91C813.917 91 813.75 90.8334 813.75 90.5V82.29ZM780.57 70.87C779 80.57 789.24 83.81 796.82 83.11C811.78 81.72 814.62 70.85 813.66 57.88C813.64 57.5934 813.49 57.4867 813.21 57.56C806.77 59.2267 800.223 60.3834 793.57 61.03C787.72 61.59 781.59 64.63 780.57 70.87Z" fill="#D81F1F"/>
<path d="M939 43.81V91.06H929.12C928.873 91.06 928.75 90.9367 928.75 90.69V82.49C928.747 82.4119 928.721 82.3366 928.674 82.2742C928.627 82.2118 928.562 82.1655 928.487 82.1414C928.413 82.1174 928.333 82.1168 928.258 82.1398C928.184 82.1628 928.118 82.2083 928.07 82.27C923.037 89.2567 916.533 92.7567 908.56 92.77C896.78 92.78 886.19 86.46 885.12 73.84C883.2 51.33 909.56 52.14 924.3 49.85C927.54 49.35 928.48 47.73 928.53 44.53C928.7 34.95 921.91 30.82 913.09 31.1C906.17 31.32 900.77 34.59 896.89 40.91C896.69 41.2434 896.407 41.34 896.04 41.2L887.34 37.98C887.047 37.8734 886.967 37.6767 887.1 37.39C892.49 25.89 903.31 21.66 915.33 22.03C928.77 22.45 938.2 29.33 939 43.81ZM907.1 61.45C902.33 62.05 896.28 64.8 895.59 70.24C893.26 88.51 923.54 86.62 927.89 70.97C928.93 67.24 928.45 62.21 928.59 57.93C928.597 57.5767 928.43 57.4434 928.09 57.53C921.15 59.2634 914.153 60.57 907.1 61.45Z" fill="#D81F1F"/>
<path d="M474.94 93H472.19C432.69 88.13 431.17 30.37 469.55 22.2C470.003 22.1 470.23 22.2833 470.23 22.75L470.29 32.29C470.29 32.5767 470.153 32.76 469.88 32.84C459.033 35.9 452.867 43.0167 451.38 54.19C448.82 73.4 468.8 91.28 486.56 77.75C486.847 77.5233 487.113 77.5467 487.36 77.82L493.27 84.51C493.603 84.89 493.573 85.2367 493.18 85.55C487.693 89.9567 481.613 92.44 474.94 93Z" fill="#D81F1F"/>
<path d="M477.21 32.83C477.077 32.7928 476.96 32.7129 476.877 32.6027C476.794 32.4925 476.749 32.358 476.75 32.22V22.75C476.75 22.6746 476.767 22.6001 476.799 22.5319C476.831 22.4637 476.878 22.4035 476.937 22.3557C476.995 22.3079 477.063 22.2736 477.136 22.2553C477.21 22.237 477.286 22.2352 477.36 22.25C493.28 25.3 503.41 37.66 505.27 53.4C505.278 53.4759 505.271 53.5527 505.248 53.6254C505.225 53.6981 505.188 53.765 505.138 53.8217C505.088 53.8784 505.026 53.9236 504.958 53.9544C504.889 53.9851 504.815 54.0007 504.74 54H496.44C496.244 54.0005 496.054 53.9314 495.904 53.8051C495.754 53.6788 495.653 53.5034 495.62 53.31C493.713 42.6167 487.577 35.79 477.21 32.83Z" fill="#D81F1F"/>
<path d="M495.57 61.82C495.596 61.6613 495.677 61.5169 495.797 61.4126C495.918 61.3082 496.072 61.2506 496.23 61.25H504.78C505.167 61.25 505.337 61.4433 505.29 61.83C504.463 68.1967 502.28 74.05 498.74 79.39C498.507 79.7433 498.247 79.7633 497.96 79.45L491.81 72.73C491.61 72.51 491.59 72.27 491.75 72.01C493.723 68.8767 494.997 65.48 495.57 61.82Z" fill="#D81F1F"/>
</g>
<defs>
<clipPath id="clip0_133_27">
<rect width="939" height="93" fill="white"/>
</clipPath>
</defs>
</svg>
