<svg width="27" height="27" viewBox="0 0 27 27" fill="none" xmlns="http://www.w3.org/2000/svg">
<path d="M13.3319 22.6667C13.6584 22.6667 13.9736 22.7866 14.2177 23.0036C14.4617 23.2206 14.6176 23.5197 14.6559 23.844L14.6652 24V25.3333C14.6648 25.6732 14.5347 26 14.3014 26.2472C14.0681 26.4943 13.7493 26.643 13.41 26.6629C13.0707 26.6828 12.7367 26.5724 12.4761 26.3543C12.2155 26.1362 12.048 25.8268 12.0079 25.4893L11.9985 25.3333V24C11.9985 23.6464 12.139 23.3072 12.389 23.0572C12.6391 22.8071 12.9782 22.6667 13.3319 22.6667ZM21.7492 19.88L21.8745 19.9907L22.8079 20.924C23.047 21.1639 23.1858 21.4859 23.1962 21.8245C23.2065 22.1631 23.0876 22.493 22.8635 22.747C22.6395 23.0011 22.3271 23.1604 21.9899 23.1925C21.6527 23.2247 21.3158 23.1272 21.0479 22.92L20.9225 22.8093L19.9892 21.876C19.7591 21.6463 19.6209 21.3405 19.6005 21.016C19.5801 20.6915 19.6789 20.3708 19.8785 20.1141C20.078 19.8574 20.3644 19.6825 20.6839 19.6222C21.0033 19.5619 21.3338 19.6204 21.6132 19.7867L21.7492 19.88ZM6.67452 19.9907C6.90409 20.2203 7.042 20.5257 7.06237 20.8498C7.08275 21.1738 6.98419 21.4941 6.78519 21.7507L6.67452 21.876L5.74119 22.8093C5.50125 23.0485 5.17928 23.1873 4.84068 23.1976C4.50208 23.208 4.17224 23.089 3.91815 22.865C3.66406 22.641 3.50478 22.3286 3.47266 21.9914C3.44053 21.6541 3.53797 21.3173 3.74519 21.0493L3.85586 20.924L4.78919 19.9907C5.03923 19.7407 5.3783 19.6003 5.73186 19.6003C6.08541 19.6003 6.42449 19.7407 6.67452 19.9907ZM2.66519 12C3.00503 12.0004 3.3319 12.1305 3.57901 12.3638C3.82613 12.5971 3.97484 12.9159 3.99475 13.2552C4.01467 13.5944 3.90429 13.9285 3.68617 14.1891C3.46805 14.4497 3.15865 14.6172 2.82119 14.6573L2.66519 14.6667H1.33186C0.992017 14.6663 0.665147 14.5362 0.418032 14.3029C0.170917 14.0696 0.0222095 13.7507 0.00229338 13.4115C-0.0176228 13.0722 0.0927557 12.7382 0.310876 12.4776C0.528996 12.217 0.838395 12.0495 1.17586 12.0093L1.33186 12H2.66519ZM25.3319 12C25.6717 12.0004 25.9986 12.1305 26.2457 12.3638C26.4928 12.5971 26.6415 12.9159 26.6614 13.2552C26.6813 13.5944 26.571 13.9285 26.3528 14.1891C26.1347 14.4497 25.8253 14.6172 25.4879 14.6573L25.3319 14.6667H23.9985C23.6587 14.6663 23.3318 14.5362 23.0847 14.3029C22.8376 14.0696 22.6889 13.7507 22.669 13.4115C22.649 13.0722 22.7594 12.7382 22.9775 12.4776C23.1957 12.217 23.5051 12.0495 23.8425 12.0093L23.9985 12H25.3319ZM5.61586 3.74667L5.74119 3.85733L6.67452 4.79067C6.91365 5.03061 7.05249 5.35258 7.06283 5.69118C7.07317 6.02978 6.95424 6.35962 6.73019 6.6137C6.50615 6.86779 6.19379 7.02707 5.85656 7.0592C5.51933 7.09132 5.18251 6.99388 4.91452 6.78667L4.78919 6.676L3.85586 5.74267C3.62664 5.51291 3.4891 5.20743 3.46901 4.88351C3.44892 4.55959 3.54767 4.23946 3.74674 3.98314C3.94581 3.72682 4.23153 3.5519 4.55035 3.49119C4.86916 3.43047 5.19918 3.48812 5.47852 3.65333L5.61586 3.74667ZM22.8079 3.85733C23.0374 4.08692 23.1753 4.39239 23.1957 4.71643C23.2161 5.04046 23.1175 5.36079 22.9185 5.61733L22.8079 5.74267L21.8745 6.676C21.6346 6.91513 21.3126 7.05397 20.974 7.0643C20.6354 7.07464 20.3056 6.95571 20.0515 6.73167C19.7974 6.50762 19.6381 6.19526 19.606 5.85803C19.5739 5.5208 19.6713 5.18399 19.8785 4.916L19.9892 4.79067L20.9225 3.85733C21.1726 3.60737 21.5116 3.46695 21.8652 3.46695C22.2187 3.46695 22.5578 3.60737 22.8079 3.85733ZM13.3319 0C13.6584 4.30807e-05 13.9736 0.119942 14.2177 0.336954C14.4617 0.553966 14.6176 0.852998 14.6559 1.17733L14.6652 1.33333V2.66667C14.6648 3.00651 14.5347 3.33338 14.3014 3.58049C14.0681 3.82761 13.7493 3.97631 13.41 3.99623C13.0707 4.01615 12.7367 3.90577 12.4761 3.68765C12.2155 3.46953 12.048 3.16013 12.0079 2.82267L11.9985 2.66667V1.33333C11.9985 0.979711 12.139 0.640573 12.389 0.390524C12.6391 0.140476 12.9782 0 13.3319 0ZM13.3319 6.66667C14.6381 6.66659 15.9156 7.05025 17.0056 7.77C18.0957 8.48975 18.9503 9.51386 19.4633 10.7151C19.9763 11.9164 20.1251 13.242 19.8912 14.5271C19.6573 15.8122 19.051 17.0003 18.1476 17.9438C17.2443 18.8873 16.0836 19.5447 14.8099 19.8342C13.5362 20.1237 12.2054 20.0327 10.983 19.5724C9.76053 19.112 8.70024 18.3028 7.9338 17.245C7.16736 16.1873 6.72855 14.9277 6.67186 13.6227L6.66519 13.3333L6.67186 13.044C6.74642 11.3277 7.48067 9.70637 8.72149 8.51821C9.96231 7.33006 11.6139 6.66677 13.3319 6.66667Z" fill="#FE675D"/>
</svg>
