<svg width="28" height="24" viewBox="0 0 13 11" fill="none" xmlns="http://www.w3.org/2000/svg">
<path d="M12.4994 1.71771C12.0501 1.9209 11.5735 2.05428 11.0855 2.1134C11.5938 1.8024 11.9841 1.30991 12.1679 0.723117C11.6847 1.01584 11.156 1.22208 10.6047 1.33293C10.1557 0.844552 9.51593 0.539337 8.80785 0.539337C7.44833 0.539337 6.34608 1.6645 6.34608 3.05226C6.34608 3.24924 6.36787 3.44101 6.40982 3.62498C4.36393 3.52015 2.55004 2.51972 1.33587 0.999337C1.12401 1.37049 1.00262 1.80221 1.00262 2.26269C1.00262 3.13455 1.43725 3.90369 2.09774 4.35436C1.70682 4.34186 1.3245 4.23408 0.982697 4.04001C0.982556 4.05053 0.982556 4.06106 0.982556 4.07163C0.982556 5.28919 1.8311 6.30489 2.95721 6.53575C2.5947 6.63639 2.21446 6.65112 1.84553 6.57881C2.15877 7.57718 3.06791 8.30369 4.14509 8.32403C3.3026 8.998 2.24112 9.39977 1.08783 9.39977C0.889096 9.39977 0.693178 9.38785 0.500587 9.36465C1.59 10.0777 2.88395 10.4937 4.27413 10.4937C8.80214 10.4937 11.2782 6.66446 11.2782 3.34369C11.2782 3.2347 11.2758 3.12632 11.271 3.01857C11.753 2.66292 12.1689 2.22241 12.4994 1.71771Z" fill="#FE675D"/>
</svg>
